HIERARCHY
ROOT Hips
{
  OFFSET 14.4105 92.754 18.0687
  CHANNELS 6 Xposition Yposition Zposition Zrotation Xrotation Yrotation
  JOINT Spine
  {
    OFFSET 0 8 0
    CHANNELS 6 Xposition Yposition Zposition Zrotation Xrotation Yrotation
    JOINT Spine1
    {
      OFFSET 0 8 0
      CHANNELS 6 Xposition Yposition Zposition Zrotation Xrotation Yrotation
      JOINT Spine2
      {
        OFFSET 0 8.00001 0
        CHANNELS 6 Xposition Yposition Zposition Zrotation Xrotation Yrotation
        JOINT Spine3
        {
          OFFSET 0 8 0
          CHANNELS 6 Xposition Yposition Zposition Zrotation Xrotation Yrotation
          JOINT Neck
          {
            OFFSET 0 17 0
            CHANNELS 6 Xposition Yposition Zposition Zrotation Xrotation Yrotation
            JOINT Head
            {
              OFFSET 0 10.8 0
              CHANNELS 6 Xposition Yposition Zposition Zrotation Xrotation Yrotation
              End Site
              {
                OFFSET 0 20.25 0
              }
            }
          }
          JOINT LeftShoulder
          {
            OFFSET 5 17 0.000118619
            CHANNELS 6 Xposition Yposition Zposition Zrotation Xrotation Yrotation
            JOINT LeftShoulder2
            {
              OFFSET 6.45 0 0
              CHANNELS 6 Xposition Yposition Zposition Zrotation Xrotation Yrotation
              JOINT LeftArm
              {
                OFFSET 6.45 0 6.29817e-05
                CHANNELS 6 Xposition Yposition Zposition Zrotation Xrotation Yrotation
                JOINT LeftForeArm
                {
                  OFFSET 0 -32.4 -2
                  CHANNELS 6 Xposition Yposition Zposition Zrotation Xrotation Yrotation
                  JOINT LeftHand
                  {
                    OFFSET -1.84452e-05 -25.65 2
                    CHANNELS 6 Xposition Yposition Zposition Zrotation Xrotation Yrotation
                    JOINT LeftHandThumb1
                    {
                      OFFSET -0.499996 -1.5 2.65
                      CHANNELS 6 Xposition Yposition Zposition Zrotation Xrotation Yrotation
                      JOINT LeftHandThumb2
                      {
                        OFFSET 0 -3.8 3.7
                        CHANNELS 6 Xposition Yposition Zposition Zrotation Xrotation Yrotation
                        JOINT LeftHandThumb3
                        {
                          OFFSET 0 -3 2.7
                          CHANNELS 6 Xposition Yposition Zposition Zrotation Xrotation Yrotation
                          End Site
                          {
                            OFFSET -1.16373e-05 -2.3 1.8
                          }
                        }
                      }
                    }
                    JOINT LeftHandIndex
                    {
                      OFFSET 0 -1.89999 1.6
                      CHANNELS 6 Xposition Yposition Zposition Zrotation Xrotation Yrotation
                      JOINT LeftHandIndex1
                      {
                        OFFSET 0 -8.3 1.9
                        CHANNELS 6 Xposition Yposition Zposition Zrotation Xrotation Yrotation
                        JOINT LeftHandIndex2
                        {
                          OFFSET 0 -4.5 0
                          CHANNELS 6 Xposition Yposition Zposition Zrotation Xrotation Yrotation
                          JOINT LeftHandIndex3
                          {
                            OFFSET 0 -3.4 0
                            CHANNELS 6 Xposition Yposition Zposition Zrotation Xrotation Yrotation
                            End Site
                            {
                              OFFSET 0 -2.6 0
                            }
                          }
                        }
                      }
                    }
                    JOINT LeftHandMiddle
                    {
                      OFFSET -0.249994 -2.2 0.400003
                      CHANNELS 6 Xposition Yposition Zposition Zrotation Xrotation Yrotation
                      JOINT LeftHandMiddle1
                      {
                        OFFSET 0 -8.3 0.999998
                        CHANNELS 6 Xposition Yposition Zposition Zrotation Xrotation Yrotation
                        JOINT LeftHandMiddle2
                        {
                          OFFSET 0 -4.65 0
                          CHANNELS 6 Xposition Yposition Zposition Zrotation Xrotation Yrotation
                          JOINT LeftHandMiddle3
                          {
                            OFFSET 1.07082e-05 -3.3 0
                            CHANNELS 6 Xposition Yposition Zposition Zrotation Xrotation Yrotation
                            End Site
                            {
                              OFFSET 0 -2.7 0
                            }
                          }
                        }
                      }
                    }
                    JOINT LeftHandRing
                    {
                      OFFSET -0.499997 -2.15 -0.800001
                      CHANNELS 6 Xposition Yposition Zposition Zrotation Xrotation Yrotation
                      JOINT LeftHandRing1
                      {
                        OFFSET 0 -7.75 -0.200001
                        CHANNELS 6 Xposition Yposition Zposition Zrotation Xrotation Yrotation
                        JOINT LeftHandRing2
                        {
                          OFFSET 0 -3.79999 0
                          CHANNELS 6 Xposition Yposition Zposition Zrotation Xrotation Yrotation
                          JOINT LeftHandRing3
                          {
                            OFFSET 0 -3.4 0
                            CHANNELS 6 Xposition Yposition Zposition Zrotation Xrotation Yrotation
                            End Site
                            {
                              OFFSET 0 -2.6 0
                            }
                          }
                        }
                      }
                    }
                    JOINT LeftHandPinky
                    {
                      OFFSET -0.74999 -1.75 -1.85
                      CHANNELS 6 Xposition Yposition Zposition Zrotation Xrotation Yrotation
                      JOINT LeftHandPinky1
                      {
                        OFFSET 0 -7.15 -0.999998
                        CHANNELS 6 Xposition Yposition Zposition Zrotation Xrotation Yrotation
                        JOINT LeftHandPinky2
                        {
                          OFFSET 1.16856e-05 -3 0
                          CHANNELS 6 Xposition Yposition Zposition Zrotation Xrotation Yrotation
                          JOINT LeftHandPinky3
                          {
                            OFFSET 0 -2.35 0
                            CHANNELS 6 Xposition Yposition Zposition Zrotation Xrotation Yrotation
                            End Site
                            {
                              OFFSET 0 -2.1 0
                            }
                          }
                        }
                      }
                    }
                  }
                }
              }
            }
          }
          JOINT RightShoulder
          {
            OFFSET -5 17 -0.000119102
            CHANNELS 6 Xposition Yposition Zposition Zrotation Xrotation Yrotation
            JOINT RightShoulder2
            {
              OFFSET -6.45 0 0
              CHANNELS 6 Xposition Yposition Zposition Zrotation Xrotation Yrotation
              JOINT RightArm
              {
                OFFSET -6.45 1.92446e-05 -0.000163649
                CHANNELS 6 Xposition Yposition Zposition Zrotation Xrotation Yrotation
                JOINT RightForeArm
                {
                  OFFSET 0 -32.4 -2
                  CHANNELS 6 Xposition Yposition Zposition Zrotation Xrotation Yrotation
                  JOINT RightHand
                  {
                    OFFSET 0 -25.65 2
                    CHANNELS 6 Xposition Yposition Zposition Zrotation Xrotation Yrotation
                    JOINT RightHandThumb1
                    {
                      OFFSET 0.500006 -1.5 2.65
                      CHANNELS 6 Xposition Yposition Zposition Zrotation Xrotation Yrotation
                      JOINT RightHandThumb2
                      {
                        OFFSET 0 -3.8 3.7
                        CHANNELS 6 Xposition Yposition Zposition Zrotation Xrotation Yrotation
                        JOINT RightHandThumb3
                        {
                          OFFSET 0 -3 2.69999
                          CHANNELS 6 Xposition Yposition Zposition Zrotation Xrotation Yrotation
                          End Site
                          {
                            OFFSET 0 -2.3 1.8
                          }
                        }
                      }
                    }
                    JOINT RightHandIndex
                    {
                      OFFSET 0 -1.9 1.59999
                      CHANNELS 6 Xposition Yposition Zposition Zrotation Xrotation Yrotation
                      JOINT RightHandIndex1
                      {
                        OFFSET 0 -8.3 1.9
                        CHANNELS 6 Xposition Yposition Zposition Zrotation Xrotation Yrotation
                        JOINT RightHandIndex2
                        {
                          OFFSET 0 -4.5 0
                          CHANNELS 6 Xposition Yposition Zposition Zrotation Xrotation Yrotation
                          JOINT RightHandIndex3
                          {
                            OFFSET 0 -3.4 0
                            CHANNELS 6 Xposition Yposition Zposition Zrotation Xrotation Yrotation
                            End Site
                            {
                              OFFSET 0 -2.6 0
                            }
                          }
                        }
                      }
                    }
                    JOINT RightHandMiddle
                    {
                      OFFSET 0.250002 -2.2 0.399999
                      CHANNELS 6 Xposition Yposition Zposition Zrotation Xrotation Yrotation
                      JOINT RightHandMiddle1
                      {
                        OFFSET 0 -8.3 0.999998
                        CHANNELS 6 Xposition Yposition Zposition Zrotation Xrotation Yrotation
                        JOINT RightHandMiddle2
                        {
                          OFFSET 0 -4.65 0
                          CHANNELS 6 Xposition Yposition Zposition Zrotation Xrotation Yrotation
                          JOINT RightHandMiddle3
                          {
                            OFFSET -1.48003e-05 -3.3 0
                            CHANNELS 6 Xposition Yposition Zposition Zrotation Xrotation Yrotation
                            End Site
                            {
                              OFFSET 1.49242e-05 -2.7 0
                            }
                          }
                        }
                      }
                    }
                    JOINT RightHandRing
                    {
                      OFFSET 0.500005 -2.15 -0.800003
                      CHANNELS 6 Xposition Yposition Zposition Zrotation Xrotation Yrotation
                      JOINT RightHandRing1
                      {
                        OFFSET -1.00402e-05 -7.75 -0.199999
                        CHANNELS 6 Xposition Yposition Zposition Zrotation Xrotation Yrotation
                        JOINT RightHandRing2
                        {
                          OFFSET 0 -3.8 0
                          CHANNELS 6 Xposition Yposition Zposition Zrotation Xrotation Yrotation
                          JOINT RightHandRing3
                          {
                            OFFSET 0 -3.4 0
                            CHANNELS 6 Xposition Yposition Zposition Zrotation Xrotation Yrotation
                            End Site
                            {
                              OFFSET 0 -2.6 0
                            }
                          }
                        }
                      }
                    }
                    JOINT RightHandPinky
                    {
                      OFFSET 0.75 -1.75 -1.85
                      CHANNELS 6 Xposition Yposition Zposition Zrotation Xrotation Yrotation
                      JOINT RightHandPinky1
                      {
                        OFFSET 0 -7.15 -1
                        CHANNELS 6 Xposition Yposition Zposition Zrotation Xrotation Yrotation
                        JOINT RightHandPinky2
                        {
                          OFFSET 0 -3 0
                          CHANNELS 6 Xposition Yposition Zposition Zrotation Xrotation Yrotation
                          JOINT RightHandPinky3
                          {
                            OFFSET -1.22243e-05 -2.35001 0
                            CHANNELS 6 Xposition Yposition Zposition Zrotation Xrotation Yrotation
                            End Site
                            {
                              OFFSET 1.2562e-05 -2.1 0
                            }
                          }
                        }
                      }
                    }
                  }
                }
              }
            }
          }
        }
      }
    }
  }
  JOINT LeftUpLeg
  {
    OFFSET 8 0 0
    CHANNELS 6 Xposition Yposition Zposition Zrotation Xrotation Yrotation
    JOINT LeftLeg
    {
      OFFSET 0 -45 -1
      CHANNELS 6 Xposition Yposition Zposition Zrotation Xrotation Yrotation
      JOINT LeftFoot
      {
        OFFSET 0 -41 -2
        CHANNELS 6 Xposition Yposition Zposition Zrotation Xrotation Yrotation
        JOINT LeftToeBase
        {
          OFFSET 0 -7.5 12.5
          CHANNELS 6 Xposition Yposition Zposition Zrotation Xrotation Yrotation
          JOINT LeftFootToe
          {
            OFFSET 0 0 4
            CHANNELS 6 Xposition Yposition Zposition Zrotation Xrotation Yrotation
            End Site
            {
              OFFSET 0 0 0
            }
          }
        }
      }
    }
  }
  JOINT RightUpLeg
  {
    OFFSET -8 0 0
    CHANNELS 6 Xposition Yposition Zposition Zrotation Xrotation Yrotation
    JOINT RightLeg
    {
      OFFSET 0 -45 -0.999998
      CHANNELS 6 Xposition Yposition Zposition Zrotation Xrotation Yrotation
      JOINT RightFoot
      {
        OFFSET 0 -41 -2
        CHANNELS 6 Xposition Yposition Zposition Zrotation Xrotation Yrotation
        JOINT RightToeBase
        {
          OFFSET 0 -7.5 12.5
          CHANNELS 6 Xposition Yposition Zposition Zrotation Xrotation Yrotation
          JOINT RightFootToe
          {
            OFFSET 0 0 4
            CHANNELS 6 Xposition Yposition Zposition Zrotation Xrotation Yrotation
            End Site
            {
              OFFSET 0 0 0
            }
          }
        }
      }
    }
  }
}
MOTION
Frames:	3
Frame Time:	0.0111111
1.59763 92.7702 39.0884 -1.03069 -0.747057 -86.1402 0 8 0 0.0300164 0.95875 6.34329 -7.10543e-15 8 -8.88178e-16 1.24242 0.0954014 -2.51859 0 8 0 0.331076 0.0120451 1.25872 -7.10543e-15 8 -8.88178e-16 0.154692 -0.039435 -0.302758 7.10543e-15 17 0 1.87341 2.05881 15.7928 0 10.8 0 3.40151 5.54099 37.3621 5 17 8.88178e-16 4.4066 -0.186811 -4.92285 6.45 -2.84217e-14 0 4.40628 -0.186799 -4.92268 6.45 2.84217e-14 0 98.3667 -20.4431 13.1316 -1.42109e-14 -32.4 -2 -48.0622 -43.0191 -29.8427 0 -25.65 2 -12.1947 14.4101 -22.7863 -0.5 -1.5 2.65 -16.8748 -9.31091 13.7887 0 -3.8 3.7 0.0055549 19.6701 0.000823971 0 -3 2.7 -0.000153981 68.4591 0.00616145 1.42109e-14 -1.9 1.6 0.000452017 0.29097 8.60266e-05 0 -8.3 1.9 -0.44687 -5.67842 0.00658086 -1.42109e-14 -4.5 0 0.0663475 -0.00224751 -0.000903038 0 -3.4 0 0.0608763 -0.00236545 0.00494004 -0.25 -2.2 0.4 1.46845e-06 -2.3488e-07 -2.37537e-07 -1.42109e-14 -8.3 1 -0.369003 -4.97879 0.0102679 -2.84217e-14 -4.65 0 0.00796904 0.0119295 -0.00137171 -1.42109e-14 -3.3 0 0.00797988 0.00405493 0.0148051 -0.5 -2.15 -0.8 1.46845e-06 -2.3488e-07 -2.37537e-07 -2.84217e-14 -7.75 -0.2 -0.217443 -3.74132 0.0111688 0 -3.8 2.84217e-14 -0.000355289 0.00595324 -0.000741597 0 -3.4 -2.84217e-14 0.000372675 -0.00668341 -0.000688177 -0.75 -1.75 -1.85 1.46845e-06 -2.3488e-07 -2.37537e-07 0 -7.15 -1 -0.143052 -3.08975 0.00574679 1.42109e-14 -3 0 8.09194e-05 -0.0258821 0.00120852 -1.42109e-14 -2.35 0 4.98706e-05 -0.0258451 -0.00851366 -5 17 8.88178e-16 0.00217236 -0.00347101 -2.01928 -6.45 2.84217e-14 0 -0.00021535 -0.00327824 -2.01959 -6.45 0 2.22045e-16 -20.8998 7.72787 -3.00465 -3.55271e-15 -32.4 -2 105.308 -42.7957 46.0278 0 -25.65 2 -9.99635 30.752 7.71348 0.5 -1.5 2.65 14.3047 8.38647 17.0686 0 -3.8 3.7 -0.00255408 19.4152 0.0298877 0 -3 2.7 0.00337304 12.1408 0.0270815 0 -1.9 1.6 -0.0208499 -0.00120685 0.0210499 1.42109e-14 -8.3 1.9 20.1028 21.524 -4.20672 -1.42109e-14 -4.5 0 56.1386 0.00938919 -0.00630817 -1.42109e-14 -3.4 0 38.9505 -0.0202549 -0.00749583 0.25 -2.2 0.4 -0.0315222 0.00851584 0.0145488 0 -8.3 1 37.7636 25.463 -10.6654 0 -4.65 7.10543e-15 57.96 -0.0188437 0.000719962 1.42109e-14 -3.3 7.10543e-15 40.375 0.0851909 -0.0372291 0.5 -2.15 -0.8 -0.0206793 0.0203276 0.0373881 0 -7.75 -0.2 51.7453 26.0586 -16.8 -1.42109e-14 -3.8 0 65.4809 -0.00348152 -0.0123494 7.10543e-15 -3.4 0 47.0768 0.0150341 0.010849 0.75 -1.75 -1.85 -4.24718e-05 0.0247178 4.65454e-05 -1.42109e-14 -7.15 -1 63.9663 21.0928 -19.3432 1.42109e-14 -3 7.10543e-15 50.4467 0.00878073 0.0201079 -3.55271e-15 -2.35 -7.10543e-15 34.8048 -0.00101131 -0.00537142 8 -1.42109e-14 0 -4.90849 -3.46863 8.16363 7.10543e-15 -45 -1 -0.0151089 8.49523 0.630837 0 -41 -2 4.80815 -4.62895 -16.2659 7.10543e-15 -7.5 12.5 -2.61517e-11 1.14049e-16 -1.30571e-10 0 0 4 -8.27511 -3.98247 -0.0347907 -8 -1.42109e-14 4.44089e-16 -10.0864 -3.34221 -3.72504 0 -45 -1 0.0102279 3.81491 0.182749 3.55271e-15 -41 -2 9.05099 1.02541 -2.24623 -3.55271e-15 -7.5 12.5 -2.42156e-25 -5.81638e-09 -2.38542e-15 0 5.55112e-17 4 -7.22489 -3.41409 -0.0107454 
1.6043 92.768 39.1068 -1.04237 -0.750476 -86.1058 0 8 -4.44089e-16 0.0194608 0.967001 6.34546 -7.10543e-15 8 -8.88178e-16 1.22899 0.0951343 -2.51674 0 8 4.44089e-16 0.330856 0.0116954 1.2452 0 8 0 0.156221 -0.0397067 -0.309159 -7.10543e-15 17 0 1.88138 2.03562 15.7691 -7.10543e-15 10.8 0 3.42832 5.48964 37.3034 5 17 8.88178e-16 4.4046 -0.187254 -4.95581 6.45 2.84217e-14 0 4.40577 -0.18725 -4.95613 6.45 0 -8.88178e-16 98.2881 -20.5652 13.0043 1.42109e-14 -32.4 -2 -47.9339 -43.075 -29.8623 0 -25.65 2 -12.2085 14.2584 -23.0705 -0.5 -1.5 2.65 -16.848 -8.99767 13.8904 0 -3.8 3.7 0.00284086 19.9574 0.00147977 1.42109e-14 -3 2.7 -9.06018e-05 68.8114 -0.00260097 -2.84217e-14 -1.9 1.6 0.000452017 0.290534 8.60266e-05 0 -8.3 1.9 -0.392536 -5.38583 0.00642441 -1.42109e-14 -4.5 0 -0.216003 -0.00270074 -0.00108519 0 -3.4 0 -0.217694 -0.00273731 0.00487109 -0.25 -2.2 0.4 1.46845e-06 -2.3488e-07 -2.37537e-07 -1.42109e-14 -8.3 1 -0.331756 -4.78383 0.0101619 0 -4.65 0 0.0191711 0.0121013 -0.000771 -1.42109e-14 -3.3 0 0.0139085 0.00449029 0.0144562 -0.5 -2.15 -0.8 1.46845e-06 -2.3488e-07 -2.37537e-07 0 -7.75 -0.2 -0.212096 -3.74799 0.0103246 1.42109e-14 -3.8 0 -0.000344745 0.00589117 -0.000703021 2.84217e-14 -3.4 -2.84217e-14 0.000351162 -0.00665147 -0.000652757 -0.75 -1.75 -1.85 1.46845e-06 -2.3488e-07 -2.37537e-07 0 -7.15 -1 -0.152526 -3.20553 0.00536309 1.42109e-14 -3 0 8.05582e-05 -0.0259875 0.00122202 0 -2.35 2.84217e-14 5.02725e-05 -0.0259528 -0.00853825 -5 17 8.88178e-16 0.00217256 -0.00347101 -2.01589 -6.45 0 0 -0.000217443 -0.00327984 -2.01487 -6.45 2.84217e-14 0 -20.8705 7.70554 -3.04806 0 -32.4 -2 105.293 -42.8102 46.0215 0 -25.65 2 -9.97738 30.7462 7.71837 0.5 -1.5 2.65 14.3053 8.37257 17.0428 0 -3.8 3.7 -0.00235511 19.4055 0.0298009 0 -3 2.7 0.00298707 12.1407 0.0271204 0 -1.9 1.6 -0.0211708 -0.00120685 0.0213746 0 -8.3 1.9 20.121 21.5371 -4.21369 -1.42109e-14 -4.5 0 56.1324 0.00942563 -0.00630398 0 -3.4 0 38.9457 -0.0204194 -0.0075503 0.25 -2.2 0.4 -0.0319853 0.00872615 0.0146136 0 -8.3 1 37.7747 25.4664 -10.6693 0 -4.65 -7.10543e-15 57.9583 -0.0189558 0.000699046 7.10543e-15 -3.3 -7.10543e-15 40.3749 0.0853192 -0.038019 0.5 -2.15 -0.8 -0.0207833 0.020642 0.0375658 1.42109e-14 -7.75 -0.2 51.721 26.0544 -16.787 -1.42109e-14 -3.8 -7.10543e-15 65.518 -0.00351471 -0.0123517 -3.55271e-15 -3.4 0 47.1135 0.0152351 0.0108274 0.75 -1.75 -1.85 -4.24721e-05 0.0250968 4.65454e-05 0 -7.15 -1 63.9514 21.0836 -19.3289 1.42109e-14 -3 0 50.458 0.00901382 0.0198266 3.55271e-15 -2.35 -1.42109e-14 34.8126 -0.000753182 -0.00531872 8 -1.42109e-14 0 -4.92072 -3.46431 8.17155 0 -45 -1 -0.0152914 8.50442 0.630429 7.10543e-15 -41 -2 4.82027 -4.63259 -16.2955 0 -7.5 12.5 -2.61517e-11 1.13758e-16 -1.30567e-10 0 0 4 -8.27968 -4.00055 -0.0349098 -8 0 0 -10.1009 -3.32693 -3.717 7.10543e-15 -45 -1 0.0104124 3.81496 0.182788 -3.55271e-15 -41 -2 9.06213 1.01695 -2.27545 0 -7.5 12.5 -3.63233e-25 -5.81638e-09 -3.57812e-15 -3.55271e-15 -5.55112e-17 4 -7.24025 -3.39659 -0.0105562 
1.60516 92.7658 39.124 -1.05317 -0.754919 -86.0724 0 8 -4.44089e-16 0.00819836 0.974885 6.34533 0 8 0 1.21463 0.0948734 -2.51755 7.10543e-15 8 0 0.330668 0.0113434 1.23087 0 8 0 0.157733 -0.0399795 -0.314892 0 17 0 1.89011 2.01 15.744 0 10.8 0 3.45698 5.43276 37.2412 5 17 -1.77636e-15 4.40168 -0.187695 -4.98536 6.45 5.68434e-14 4.44089e-16 4.40244 -0.187689 -4.98611 6.45 0 -1.77636e-15 98.2119 -20.6793 12.8836 -4.26326e-14 -32.4 -2 -47.7705 -43.0721 -29.79 0 -25.65 2 -12.2609 13.9451 -23.263 -0.5 -1.5 2.65 -16.8125 -8.69075 14.0309 0 -3.8 3.7 0.00248762 20.22 0.00207795 0 -3 2.7 -0.000834788 68.8252 -0.00192084 0 -1.9 1.6 0.000452018 0.290098 8.60266e-05 0 -8.3 1.9 -0.308539 -4.98527 0.00677117 -1.42109e-14 -4.5 0 -0.632039 -0.00357451 -0.00122637 -1.42109e-14 -3.4 2.84217e-14 -0.639689 -0.00343792 0.00475764 -0.25 -2.2 0.4 1.46845e-06 -2.3488e-07 -2.37537e-07 -1.42109e-14 -8.3 1 -0.272491 -4.51301 0.0104192 1.42109e-14 -4.65 -2.84217e-14 0.0609623 0.0122511 -0.000113552 -2.84217e-14 -3.3 2.84217e-14 0.0445145 0.00494278 0.0138981 -0.5 -2.15 -0.8 1.46845e-06 -2.3488e-07 -2.37537e-07 0 -7.75 -0.2 -0.200952 -3.74666 0.00947517 0 -3.8 2.84217e-14 -0.000332381 0.0058134 -0.000661801 -1.42109e-14 -3.4 2.84217e-14 0.000327546 -0.00660894 -0.000614999 -0.75 -1.75 -1.85 1.46845e-06 -2.3488e-07 -2.37537e-07 1.42109e-14 -7.15 -1 -0.160734 -3.34791 0.00506648 0 -3 0 8.01547e-05 -0.0260872 0.00123579 0 -2.35 -2.84217e-14 5.06536e-05 -0.0260551 -0.00855985 -5 17 0 0.00217277 -0.00347102 -2.0125 -6.45 2.84217e-14 -4.44089e-16 -0.000219585 -0.00328145 -2.01024 -6.45 0 -2.22045e-16 -20.8456 7.68318 -3.0832 0 -32.4 -2 105.277 -42.8245 46.0174 -1.42109e-14 -25.65 2 -9.96334 30.7447 7.72488 0.5 -1.5 2.65 14.3061 8.36133 17.0209 0 -3.8 3.7 -0.00215237 19.3904 0.0297112 0 -3 2.7 0.00260105 12.1427 0.027158 -1.42109e-14 -1.9 1.6 -0.021492 -0.00120685 0.0216993 0 -8.3 1.9 20.1422 21.5559 -4.22283 -1.42109e-14 -4.5 -1.42109e-14 56.1266 0.00945917 -0.00629839 0 -3.4 1.42109e-14 38.9413 -0.0205831 -0.00760184 0.25 -2.2 0.4 -0.032448 0.00893722 0.0146762 1.42109e-14 -8.3 1 37.7881 25.4715 -10.6753 0 -4.65 -7.10543e-15 57.9529 -0.0190655 0.000678397 7.10543e-15 -3.3 0 40.375 0.0854405 -0.0388073 0.5 -2.15 -0.8 -0.0208846 0.0209564 0.0377388 -1.42109e-14 -7.75 -0.2 51.6944 26.0522 -16.7743 1.42109e-14 -3.8 0 65.565 -0.00354791 -0.0123522 0 -3.4 1.42109e-14 47.1601 0.0154358 0.0108044 0.75 -1.75 -1.85 -4.24724e-05 0.0254761 4.65454e-05 0 -7.15 -1 63.9342 21.0764 -19.3151 -1.42109e-14 -3 0 50.4881 0.00924543 0.0195409 -7.10543e-15 -2.35 -7.10543e-15 34.8334 -0.000494082 -0.00526613 8 0 0 -4.93293 -3.45607 8.18031 0 -45 -1 -0.0154367 8.51161 0.629988 7.10543e-15 -41 -2 4.831 -4.63848 -16.3278 0 -7.5 12.5 -2.61517e-11 1.14097e-16 -1.30569e-10 7.10543e-15 0 4 -8.27962 -4.01866 -0.0349696 -8 0 4.44089e-16 -10.1151 -3.3108 -3.7056 -7.10543e-15 -45 -1 0.0105969 3.81502 0.182707 0 -41 -2 9.07248 1.00614 -2.30474 0 -7.5 12.5 1.2424e-17 -5.81638e-09 -3.18055e-15 -3.55271e-15 5.55112e-17 4 -7.25134 -3.38199 -0.0103632 
